<svg width="40" height="40" viewBox="0 0 40 40" fill="none" xmlns="http://www.w3.org/2000/svg">
<g clip-path="url(#clip0_29_36)">
<path d="M15 6.66666H20L23.3333 10H31.6667C32.5507 10 33.3986 10.3512 34.0237 10.9763C34.6488 11.6014 35 12.4493 35 13.3333V25C35 25.8841 34.6488 26.7319 34.0237 27.357C33.3986 27.9821 32.5507 28.3333 31.6667 28.3333H15C14.116 28.3333 13.2681 27.9821 12.643 27.357C12.0179 26.7319 11.6667 25.8841 11.6667 25V10C11.6667 9.11594 12.0179 8.2681 12.643 7.64297C13.2681 7.01785 14.116 6.66666 15 6.66666Z" stroke="#A2997F" stroke-width="2" stroke-linecap="round" stroke-linejoin="round"/>
<path d="M28.3333 28.3333V31.6667C28.3333 32.5507 27.9821 33.3986 27.357 34.0237C26.7319 34.6488 25.8841 35 25 35H8.33333C7.44928 35 6.60143 34.6488 5.97631 34.0237C5.35119 33.3986 5 32.5507 5 31.6667V16.6667C5 15.7826 5.35119 14.9348 5.97631 14.3096C6.60143 13.6845 7.44928 13.3333 8.33333 13.3333H11.6667" stroke="#A2997F" stroke-width="2" stroke-linecap="round" stroke-linejoin="round"/>
</g>
<defs>
<clipPath id="clip0_29_36">
<rect width="40" height="40" fill="white"/>
</clipPath>
</defs>
</svg>
