<svg width="30" height="30" viewBox="0 0 40 40" fill="none" xmlns="http://www.w3.org/2000/svg">
<g clip-path="url(#clip0_29_32)">
<path d="M5 31.6667H35" stroke="#A2997F" stroke-width="2" stroke-linecap="round" stroke-linejoin="round"/>
<path d="M8.33334 11.6667C8.33334 11.2246 8.50894 10.8007 8.8215 10.4882C9.13406 10.1756 9.55798 10 10 10H30C30.442 10 30.866 10.1756 31.1785 10.4882C31.4911 10.8007 31.6667 11.2246 31.6667 11.6667V25C31.6667 25.442 31.4911 25.8659 31.1785 26.1785C30.866 26.4911 30.442 26.6667 30 26.6667H10C9.55798 26.6667 9.13406 26.4911 8.8215 26.1785C8.50894 25.8659 8.33334 25.442 8.33334 25V11.6667Z" stroke="#A2997F" stroke-width="2" stroke-linecap="round" stroke-linejoin="round"/>
</g>
<defs>
<clipPath id="clip0_29_32">
<rect width="40" height="40" fill="white"/>
</clipPath>
</defs>
</svg>
